<svg width="107" height="24" viewBox="0 0 107 24" fill="none" xmlns="http://www.w3.org/2000/svg">
<path d="M11.975 13.5001H11.45C11.425 14.2501 11.175 14.8501 10.85 15.1751C10.225 15.8001 9.225 15.85 7.85 15.85H7.425C6.075 15.85 5.875 15.7001 5.875 14.5751V9.05005H7.925C8.8 9.05005 9.575 9.10005 10.1 9.55005C10.4 9.82505 10.6 10.2501 10.65 10.9001H11.175C11.15 10.3251 11.125 10.0251 11.125 8.47505C11.125 6.90005 11.175 6.55005 11.175 6.00005H10.65C10.6 6.72505 10.35 7.20005 10 7.47505C9.55 7.85005 8.875 7.90005 7.975 7.90005H5.875V1.77505H7.925C9.475 1.77505 9.975 1.82505 10.525 2.15005C11 2.42505 11.35 3.00005 11.375 3.85005H11.9C11.8 2.70005 11.825 0.62505 11.825 0.62505H4.675C3.275 0.62505 2.2 0.625049 0.825 0.550049V1.00005C1.5 1.05005 1.9 1.35005 2.1 1.62505C2.35 2.00005 2.425 2.55005 2.425 4.12505V12.725C2.425 14.8751 2.4 15.5751 1.975 16.0501C1.6 16.4751 1.075 16.6 0.75 16.6V17.0501C2.15 16.9751 3.5 17 4.9 17H11.9C11.9 17 11.875 14.6501 11.975 13.5001Z" fill="white"/>
<path d="M26.1354 5.77505V5.32505C25.3854 5.37505 24.5854 5.42505 23.8354 5.42505C23.1104 5.42505 22.4854 5.37505 21.7604 5.32505V5.77505C22.0854 5.77505 22.4354 5.82505 22.6854 6.00005C22.8604 6.12505 22.9604 6.32505 22.9604 6.57505C22.9604 6.90005 22.8354 7.35005 22.5854 8.02505L20.3854 13.8001C20.3854 13.8001 20.2104 13.0251 19.7604 11.85L18.3104 8.00005C18.0354 7.30005 17.9104 6.92505 17.9104 6.60005C17.9104 6.30005 18.0354 6.12505 18.2354 6.00005C18.4854 5.82505 18.8604 5.77505 19.1854 5.77505V5.32505C18.4604 5.37505 16.8854 5.42505 16.1354 5.42505C15.4104 5.42505 13.6854 5.37505 12.9604 5.32505V5.77505C13.8354 5.75005 14.0854 6.35005 14.1354 6.45005C14.3104 6.80005 14.5104 7.27505 14.6354 7.57505L18.4854 17.25L20.2604 17.0251L24.3354 7.65005C24.4354 7.45005 24.7604 6.70005 24.9104 6.47505C25.0604 6.25005 25.4354 5.72505 26.1354 5.77505Z" fill="white"/>
<path d="M29.6877 10.475H36.9627V10.3251C36.9627 9.17505 36.8627 8.00005 36.1377 6.95005C35.7627 6.40005 34.7627 5.15005 32.1877 5.15005C27.1877 5.15005 26.2627 9.35005 26.2627 11.5001C26.2627 16.9751 30.8127 17.1751 32.0627 17.1751C35.2877 17.1751 36.5627 15.4001 36.5627 15.4001L36.3127 15.0751C36.3127 15.0751 35.3877 15.6 34.0377 15.6C32.7377 15.6 30.7127 15.4251 29.9877 13.0001C29.7877 12.3251 29.6877 11.45 29.6877 10.5251V10.475ZM33.5377 9.37505H29.7127C29.7127 7.10005 30.1877 6.10005 31.6377 6.10005C33.1877 6.10005 33.5377 7.40005 33.5377 9.15005V9.37505Z" fill="white"/>
<path d="M48.8977 6.25005V6.00005C48.2977 5.40005 47.4727 5.20005 46.5477 5.20005C45.3227 5.20005 44.0727 5.77505 43.2977 6.87505V5.27505L43.1477 5.20005C42.7477 5.32505 42.2477 5.42505 41.5977 5.50005C40.1477 5.70005 38.7977 5.75005 38.3477 5.72505V6.20005C38.6227 6.22505 39.3477 6.22505 39.6727 6.72505C39.9227 7.10005 39.9477 7.70005 39.9477 9.30005V12.725C39.9477 14.8751 39.9227 15.5751 39.4977 16.0501C39.1227 16.4751 38.5977 16.6 38.2727 16.6V17.0501C39.3477 16.9501 40.8477 16.9501 41.7227 16.9501C42.5977 16.9501 44.6227 17.0001 45.5977 17.0501V16.5751C45.4977 16.5751 44.1477 16.6001 43.6727 15.9251C43.4227 15.5501 43.3477 14.9751 43.3477 13.4001V7.37505C43.7727 7.12505 44.1977 7.07505 44.7227 7.07505C46.3977 7.07505 47.1227 8.77505 47.1977 8.90005H47.4227L48.8977 6.25005Z" fill="white"/>
<path d="M61.9822 7.02505V5.07505L57.5322 5.62505C56.8322 5.37505 55.9072 5.17505 54.9322 5.17505C51.5072 5.17505 49.6572 6.97505 49.6572 9.32505C49.6572 11.6001 50.9822 12.7001 52.8072 13.1501C51.7322 13.6501 50.5572 14.5251 50.5572 16.0001C50.5572 16.7251 50.9322 17.5 51.8072 17.85C51.0822 18 48.7822 18.6251 48.7822 20.7251C48.7822 22.4501 50.5822 23.625 54.3322 23.625C59.2072 23.625 61.5572 21.0251 61.5572 18.6C61.5572 15.425 58.9322 15.2501 57.5822 15.2501C55.9072 15.2501 55.4572 15.3001 54.2822 15.3001C53.7572 15.3001 53.0822 15.2251 53.0822 14.3251C53.0822 14.1501 53.1322 13.6751 53.5322 13.3001C53.9322 13.3501 54.3322 13.3751 54.7572 13.3751C58.2572 13.3751 60.1072 11.6501 60.1072 9.27505C60.1072 7.62505 59.2072 6.90005 58.9572 6.65005L61.9822 7.02505ZM56.9322 9.17505C56.9322 10.625 56.7072 12.5501 54.9072 12.5501C52.9822 12.5501 52.8072 10.1751 52.8072 9.37505C52.8072 7.92505 53.0322 6.00005 54.8322 6.00005C56.7572 6.00005 56.9322 8.37505 56.9322 9.17505ZM58.9822 19.6501C58.9822 21.6501 57.0572 22.5 54.5822 22.5C53.6572 22.5 51.2572 22.3001 51.2572 20.1001C51.2572 18.9001 52.2072 18.3 52.5572 18.1H56.6072C57.6322 18.1 58.9822 18.1251 58.9822 19.6501Z" fill="white"/>
<path d="M73.1652 6.25005V6.00005C72.5652 5.40005 71.7402 5.20005 70.8152 5.20005C69.5902 5.20005 68.3402 5.77505 67.5652 6.87505V5.27505L67.4152 5.20005C67.0152 5.32505 66.5152 5.42505 65.8652 5.50005C64.4152 5.70005 63.0652 5.75005 62.6152 5.72505V6.20005C62.8902 6.22505 63.6152 6.22505 63.9402 6.72505C64.1902 7.10005 64.2152 7.70005 64.2152 9.30005V12.725C64.2152 14.8751 64.1902 15.5751 63.7652 16.0501C63.3902 16.4751 62.8652 16.6 62.5402 16.6V17.0501C63.6152 16.9501 65.1152 16.9501 65.9902 16.9501C66.8652 16.9501 68.8902 17.0001 69.8652 17.0501V16.5751C69.7652 16.5751 68.4152 16.6001 67.9402 15.9251C67.6902 15.5501 67.6152 14.9751 67.6152 13.4001V7.37505C68.0402 7.12505 68.4652 7.07505 68.9902 7.07505C70.6652 7.07505 71.3902 8.77505 71.4652 8.90005H71.6902L73.1652 6.25005Z" fill="white"/>
<path d="M86.1748 11.0751C86.1748 7.52505 84.1748 5.12505 80.0748 5.12505C74.6248 5.12505 73.6748 9.17505 73.6748 11.3C73.6748 14.85 75.6748 17.25 79.7748 17.25C85.2248 17.25 86.1748 13.2001 86.1748 11.0751ZM82.4998 11.1751C82.4998 13.8251 82.0248 15.0251 81.4248 15.6751C80.8998 16.2251 80.2998 16.2751 79.9748 16.2751C79.0748 16.2751 77.3498 16.0501 77.3498 11.2001C77.3498 8.55005 77.8248 7.35005 78.4248 6.70005C78.9498 6.15005 79.5498 6.10005 79.8748 6.10005C80.7748 6.10005 82.4998 6.32505 82.4998 11.1751Z" fill="white"/>
<path d="M106.339 5.77505V5.32505C105.539 5.40005 104.939 5.42505 104.164 5.42505C103.264 5.42505 102.739 5.37505 101.864 5.32505V5.77505C102.214 5.77505 102.639 5.82505 102.889 6.00005C103.089 6.15005 103.189 6.32505 103.189 6.62505C103.189 6.87505 103.114 7.27505 102.864 8.10005L101.014 14.0251C101.014 14.0251 100.639 12.5501 100.439 11.9001L98.3141 5.12505L96.5391 5.42505L93.7641 13.9501C93.7641 13.9501 93.4141 12.5251 93.1891 11.8001L92.0391 8.05005C91.8141 7.35005 91.7141 7.02505 91.7141 6.67505C91.7141 6.37505 91.8391 6.15005 92.0141 6.02505C92.2891 5.82505 92.6891 5.77505 93.0641 5.77505V5.32505C92.3391 5.37505 90.6391 5.42505 89.8891 5.42505C89.1641 5.42505 87.6141 5.37505 86.8891 5.32505V5.77505C87.6391 5.77505 87.9391 6.20005 88.0641 6.42505C88.3141 6.85005 88.6641 8.02505 89.1141 9.42505L91.6891 17.375L94.0641 17.0251L96.5141 9.47505C96.5141 9.47505 96.7891 10.7251 97.0141 11.3751L99.0141 17.4001L101.139 17.0501L104.039 9.22505C104.614 7.67505 104.939 6.72505 105.164 6.40005C105.314 6.17505 105.639 5.72505 106.339 5.77505Z" fill="white"/>
</svg>
